<?xml version="1.0" ?><!DOCTYPE svg  PUBLIC '-//W3C//DTD SVG 1.1//EN'  'http://www.w3.org/Graphics/SVG/1.1/DTD/svg11.dtd'><svg enable-background="new 0 0 48 48" height="48px" version="1.1" viewBox="0 0 48 48" width="48px" xml:space="preserve" xmlns="http://www.w3.org/2000/svg" xmlns:xlink="http://www.w3.org/1999/xlink"><g id="Layer_4"><g><path d="M46.239,22.07v-11.8c0-1.299-1.052-2.353-2.353-2.353H20.286c-1.3,0-2.352,1.054-2.352,2.353v11.8    c0,0-0.005,0.252,0,0.659v0.056c0,0.005,0,0.01,0,0.012c0.007,0.306,0.023,0.713,0.055,1.185c0.097,1.957,0.41,3.845,0.828,5.55    c1.343,5.841,4.729,13.723,13.27,18.418c8.65-5.041,12.005-13.012,13.315-18.78c0.689-2.959,0.822-5.265,0.837-6.223V22.71    C46.246,22.313,46.239,22.07,46.239,22.07z M21.461,22.173c0,0,4.08-5.466,8.241,0C25.677,28.564,21.461,22.173,21.461,22.173z     M32.087,38.717c-3.898,0-7.059-3.16-7.059-7.057c7.58,6.064,14.116,0,14.116,0C39.145,35.557,35.986,38.717,32.087,38.717z     M34.473,22.173c4.16-5.466,8.239,0,8.239,0S38.497,28.564,34.473,22.173z" fill="#241F20"/><path d="M18.269,36.874c-0.018-0.04-1.556-3.18-1.991-4.761c-0.488-1.899-0.853-3.767-1.111-5.497    c-1.951,0.131-4.113,0.93-6.311,2.992c-0.013-3.48,2.504-6.36,5.818-6.952c-0.034-0.376-0.096-0.74-0.114-1.123    c-0.033-0.475-0.048-0.879-0.055-1.187c0-0.003,0-0.008,0-0.012v-0.059c-0.004-0.406,0-0.654,0-0.654v-0.656    c-0.029-1.28,0-2.035,0-2.035V7.82c0-1.299,1.051-2.353,2.353-2.353h13.208V2.405c0-1.299-1.052-2.354-2.353-2.354h-23.6    c-1.3,0-2.353,1.056-2.353,2.354v11.8c0,0-0.004,0.25,0,0.656v0.056c0,0.005,0,0.01,0,0.015c0.007,0.308,0.023,0.71,0.055,1.184    c0.097,1.958,0.409,3.843,0.827,5.551c1.344,5.838,4.728,13.72,13.27,18.418c0.82-0.479,1.558-0.998,2.268-1.53l0.006,0.002    l0.069-0.059c0.049-0.037,0.102-0.072,0.152-0.109c-0.002-0.005-0.002-0.007-0.003-0.012l0.45-0.369L18.269,36.874z M5.286,14.305    c0,0,4.082-5.461,8.242,0C9.503,20.696,5.286,14.305,5.286,14.305z" fill="#241F20"/></g></g></svg>